<svg width="536" height="536" viewBox="0 0 536 536" fill="none" xmlns="http://www.w3.org/2000/svg">
<path d="M407.926 94.459C406.451 93.3495 404.98 92.2337 403.535 91.0855C336.832 37.8129 236.329 28.0874 161.563 70.4239C159.838 71.4415 158.113 72.4578 156.373 73.4493C147.084 78.7268 138.377 84.6123 129.894 91.1046L128.199 92.4083C122.663 96.6455 117.417 101.099 112.418 105.956C73.2679 144.731 44.0137 198.851 43.2258 255.017L43.1995 257.408C43.1875 258.059 43.1753 258.709 43.163 259.359C42.918 272.366 42.6738 285.332 44.637 298.229L45.1995 301.408C45.6114 303.873 46.054 306.314 46.5823 308.756L47.1995 311.408C50.7766 326.95 55.0479 342.386 61.5862 356.967L63.1995 360.408C70.4797 376.049 79.034 390.93 89.7932 404.447L92.1995 407.408C96.8744 413.314 101.569 419.068 106.981 424.318L109.199 426.408C124.77 441.082 141.28 454.884 160.485 464.549C162.348 465.474 164.2 466.409 166.035 467.391C177.127 473.404 188.599 477.708 200.599 481.58L203.199 482.408C207.46 483.779 211.727 484.997 216.103 485.955L218.199 486.408C233.018 489.828 247.415 490.733 262.57 490.729L265.449 490.721C267.186 490.716 268.93 490.721 270.679 490.726C282.48 490.758 294.495 490.79 305.943 487.966C307.578 487.562 309.222 487.192 310.87 486.843L313.723 486.26C315.673 485.851 317.624 485.442 319.575 485.033C326.468 483.633 333.002 481.924 339.582 479.421C341.244 478.778 342.91 478.147 344.582 477.532C367 469.297 388.378 457.655 406.813 442.389L409.2 440.408C416.321 434.872 422.602 429.121 428.571 422.389C430.235 420.502 431.913 418.628 433.61 416.772C457.596 390.563 474.997 359.075 484.111 324.715L484.637 322.721C489.112 306.005 490.483 289.56 490.424 272.297C490.405 269.552 490.387 266.808 490.385 264.063C490.385 262.226 490.383 260.388 490.378 258.55L490.368 255.904C490.323 223.666 480.386 189.969 464.222 162.159L463.2 160.408C453.583 143.594 442.648 127.649 428.945 113.875L426.387 111.346L426.082 111.043C420.242 105.248 414.447 99.4958 407.926 94.459Z" fill="#023E8A"/>
<path d="M358.624 33.2371C360.275 33.9078 361.927 34.5747 363.581 35.2371C393.409 47.4122 419.332 65.0858 442.624 87.2371C443.474 88.0439 443.474 88.0439 444.341 88.867C452.384 96.5593 459.654 104.531 466.297 113.462C467.634 115.251 468.996 117.018 470.362 118.784C500.738 158.51 519.292 210.151 517.624 260.237C512.344 260.237 507.064 260.237 501.624 260.237C501.46 258.437 501.46 258.437 501.292 256.6C500.78 251.141 500.214 245.688 499.624 240.237C499.533 239.383 499.442 238.528 499.348 237.648C496.854 215.242 490.724 193.834 481.624 173.237C481.309 172.507 480.993 171.778 480.668 171.026C471.085 148.985 457.504 129.193 441.624 111.237C441.153 110.703 440.682 110.168 440.196 109.618C434.678 103.392 429.024 97.5687 422.624 92.2371C421.751 91.4533 420.879 90.6696 419.98 89.8621C383.033 56.9459 329.896 34.2579 280.046 34.034C278.536 34.0254 278.536 34.0254 276.995 34.0167C274.867 34.0073 272.739 34.0007 270.611 33.9969C267.425 33.9873 264.24 33.9562 261.054 33.9246C242.42 33.8287 224.516 35.9239 206.624 41.2371C205.661 41.523 204.699 41.8088 203.707 42.1033C165.045 53.8189 132.337 73.17 103.101 100.84C101.801 102.069 100.495 103.291 99.1866 104.511C92.5964 110.842 87.0973 117.946 81.6241 125.237C80.9797 126.09 80.9797 126.09 80.3223 126.961C59.9067 154.166 45.2844 185.854 38.6241 219.237C38.4813 219.934 38.3385 220.632 38.1914 221.35C35.9195 232.521 34.4716 243.433 34.4561 254.839C34.4528 255.719 34.4494 256.599 34.446 257.506C34.441 259.356 34.4386 261.207 34.4387 263.057C34.4366 265.835 34.4184 268.612 34.3994 271.389C34.3645 282.183 34.9122 292.571 36.6241 303.237C36.7957 304.307 36.9674 305.377 37.1443 306.479C46.9646 363.796 78.7199 417.457 125.624 452.237C126.187 452.661 126.75 453.085 127.33 453.521C165.903 482.479 212.181 498.165 260.249 499.8C261.444 499.843 262.639 499.886 263.87 499.93C266.788 500.035 269.706 500.137 272.624 500.237C272.624 505.847 272.624 511.457 272.624 517.237C239.894 518.316 205.903 513.14 175.624 500.237C174.49 499.768 173.355 499.299 172.187 498.815C133.83 482.717 98.5715 457.956 72.6241 425.237C71.897 424.377 71.17 423.517 70.4209 422.632C28.0306 372.46 12.1459 305.607 16.7751 241.134C17.4729 233.384 18.9196 225.82 20.6241 218.237C21.0019 216.427 21.3795 214.617 21.7569 212.807C30.8502 170.817 51.0718 132.24 79.6241 100.237C80.102 99.6975 80.5799 99.1578 81.0723 98.6018C101.031 76.1631 125.059 58.1719 151.624 44.2371C152.438 43.8078 153.251 43.3786 154.09 42.9363C177.607 30.6972 202.516 22.7234 228.624 18.2371C229.552 18.0659 230.479 17.8947 231.435 17.7183C235.096 17.1658 238.743 16.8987 242.437 16.698C243.549 16.6362 243.549 16.6362 244.683 16.5731C283.753 14.5088 322.264 17.5681 358.624 33.2371Z" fill="#023E8A"/>
<path d="M502.931 269C508.539 269 514.148 269 519.926 269C520.54 292.956 517.315 315.921 510.929 339C510.608 340.161 510.608 340.161 510.28 341.346C504.544 361.629 496.456 382.284 484.937 400C484.502 400.684 484.068 401.369 483.621 402.074C468.196 425.856 449.494 448.674 426.955 466C426.284 466.52 425.614 467.039 424.924 467.575C413.467 476.409 401.708 484.15 388.966 491C387.945 491.552 387.945 491.552 386.902 492.116C361.491 505.708 331.209 513.696 302.993 518C292.996 519 279 520 279 520C279 514.72 279 509.44 279 504C281.005 503.758 283.01 503.515 285.076 503.266C337.736 496.783 384.743 479.573 424.955 444C425.489 443.529 426.023 443.058 426.574 442.572C432.797 437.055 438.629 431.407 443.949 425C445.159 423.621 445.159 423.621 446.394 422.215C458.52 408.348 468.521 393.377 476.939 377C477.3 376.299 477.661 375.598 478.032 374.876C494.78 341.865 501.841 305.766 502.931 269Z" fill="#349EF0"/>
<path d="M324.219 194.805C325.698 194.809 327.177 194.811 328.656 194.813C332.49 194.821 336.324 194.84 340.157 194.863C344.093 194.883 348.029 194.892 351.965 194.902C359.643 194.924 367.321 194.958 375 195C366.987 219.266 366.987 219.266 357.508 224.332C349.96 227.501 343.191 228.132 335.09 228.141C333.11 228.159 331.13 228.179 329.15 228.199C326.052 228.228 322.955 228.25 319.856 228.251C305.25 228.267 295.679 229.392 283 237C282.505 229.575 282.505 229.575 282 222C281.189 223.365 280.378 224.73 279.543 226.137C273.075 236.888 266.449 246.732 258 256C256.811 257.416 255.623 258.832 254.437 260.25C246.708 268.966 237.645 275.605 228 282C226.937 278.774 227.067 276.894 228.117 273.684C228.39 272.846 228.662 272.009 228.943 271.146C229.25 270.252 229.558 269.359 229.875 268.438C230.191 267.51 230.507 266.582 230.832 265.625C237.369 246.972 246.056 230.208 260 216C260.674 215.301 261.348 214.603 262.043 213.883C268.486 207.669 276.018 203.866 284 200C284.719 199.638 285.438 199.276 286.179 198.902C297.49 193.901 312.087 194.712 324.219 194.805Z" fill="#33D6E1"/>
<path d="M295 255C310.18 255 325.36 255 341 255C331.424 278.94 331.424 278.94 323.105 282.902C316.782 285.375 310.713 285.307 304 285C304.121 285.657 304.242 286.315 304.367 286.992C305.876 295.559 307.008 304.133 307.774 312.795C307.982 314.824 308.295 316.842 308.617 318.855C309.586 328.082 306.941 332.492 301.25 339.562C299.403 341.752 297.533 343.914 295.635 346.059C294.152 347.82 292.898 349.583 291.672 351.527C291.12 352.343 290.568 353.159 290 354C289.34 354 288.68 354 288 354C286.604 352.472 285.284 350.873 284 349.25C283.207 348.259 282.414 347.267 281.598 346.246C281.178 345.719 280.758 345.191 280.325 344.648C278.066 341.838 275.751 339.077 273.438 336.312C272.582 335.288 271.727 334.263 270.871 333.238C269.945 332.13 269.945 332.13 269 331C265.3 332.233 264.453 333.638 262.062 336.688C258.459 341.205 254.779 345.629 251 350C245.136 356.804 239.296 363.644 233.875 370.809C233.256 371.532 232.637 372.255 232 373C230 373 230 373 228.484 371.496C227.286 370.073 226.088 368.65 224.891 367.227C223.69 365.812 222.453 364.427 221.172 363.086C220.62 362.501 220.068 361.915 219.5 361.312C218.995 360.793 218.489 360.274 217.969 359.738C217 358 217 358 216.77 355.496C218.256 352.48 218.905 352.385 221.98 351.297C223.712 350.767 225.448 350.253 227.188 349.75C250.433 342.321 267.11 325.781 278.375 304.438C286.468 288.614 291.156 272.297 295 255Z" fill="#34E0E2"/>
<path d="M310 359C310.66 359 311.32 359 312 359C313.241 368.45 314.32 377.902 315.245 387.389C316.081 395.935 317.031 404.468 318 413C318.904 413.105 318.904 413.105 319.826 413.212C341.405 415.759 362.924 419.304 383 428C379.635 429.094 377.151 428.898 373.68 428.328C372.605 428.16 371.529 427.991 370.422 427.818C369.251 427.63 368.081 427.443 366.875 427.25C341.429 423.412 315.73 421.356 290 421C289.099 420.987 288.197 420.973 287.269 420.96C240.174 420.292 193.486 421.957 147 430C149.208 427.513 151.048 426.389 154.184 425.316C155.018 425.031 155.852 424.745 156.711 424.45C157.611 424.157 158.511 423.864 159.438 423.562C160.85 423.101 160.85 423.101 162.291 422.63C187.048 414.775 214.755 410.754 240.699 410.902C242.141 410.904 242.141 410.904 243.612 410.907C246.637 410.912 249.662 410.925 252.688 410.938C254.757 410.943 256.827 410.947 258.896 410.951C263.931 410.962 268.965 410.979 274 411C273.948 406.416 273.853 401.833 273.75 397.25C273.736 395.948 273.722 394.646 273.707 393.305C273.675 392.054 273.643 390.804 273.609 389.516C273.578 387.787 273.578 387.787 273.546 386.024C272.891 382.396 271.819 381.29 269 379C266.734 377.141 266.734 377.141 265 375C264.828 371.984 264.828 371.984 265.25 368.75C265.379 367.672 265.508 366.595 265.641 365.484C265.819 364.255 265.819 364.255 266 363C270 363 270 363 272.043 364.801C272.751 365.63 273.458 366.459 274.188 367.312C275.352 368.664 275.352 368.664 276.539 370.043C280.39 374.671 284.227 379.308 288 384C291.787 382.485 293.67 380.289 296.188 377.125C297.355 375.665 297.355 375.665 298.547 374.176C300.237 372.009 301.886 369.817 303.516 367.605C303.921 367.056 304.327 366.506 304.745 365.939C305.889 364.378 307.021 362.808 308.152 361.238C308.762 360.5 309.372 359.761 310 359Z" fill="#36DAE1"/>
<path d="M381 297L385 321L378 317L346 387L319 341L289.5 377.5L269 353L233 394L212 373L175 413.5L169 407L210 362L231 381L267 339L288 362L317 327L344.383 367.535C352.862 350.052 363.122 332.59 369 314L362 310L381 297Z" fill="#2CB8E1"/>
<path d="M275 244C276.307 247.921 275.219 250.528 274 254.312C273.772 255.023 273.544 255.734 273.31 256.466C264.31 283.465 244.028 305.006 219 318C201.203 326.814 181.386 329.145 161.934 331.909C142.947 334.694 124.71 340.204 109.777 352.68C108 354 108 354 106 354C109.434 343.07 122.668 335.626 132.238 330.391C143.681 324.465 156.004 320.431 168.105 316.086C199.57 304.786 230.557 292.64 255 269C255.533 268.494 256.067 267.987 256.616 267.466C261.026 263.193 264.752 258.636 268.375 253.688C269.174 252.615 269.174 252.615 269.988 251.521C272.72 247.902 272.72 247.902 275 244Z" fill="#31C3E4"/>
<path d="M285 261C288.355 271.088 279.406 287.135 274.926 296.383C263.971 318.144 248.616 335.129 225.621 344.027C210.466 348.098 195.118 347.123 179.559 346.884C161.078 346.594 161.078 346.594 143 350C141.211 350.407 139.419 350.804 137.625 351.188C135.831 351.59 135.831 351.59 134 352C144.835 339.747 167.676 337.179 182.941 334.979C218.782 329.764 247.247 311.636 269 283C269.914 281.849 270.831 280.701 271.75 279.555C276.543 273.562 281.141 267.654 285 261Z" fill="#2EBFE4"/>
<path d="M264 110.875C267 111 267 111 268 112C268.072 113.853 268.084 115.708 268.063 117.562C268.054 118.574 268.045 119.586 268.035 120.629C268.024 121.411 268.012 122.194 268 123C268.887 123.124 269.774 123.248 270.688 123.375C273.704 123.944 276.203 124.766 279 126C279 126.66 279 127.32 279 128C279.74 128.244 280.48 128.487 281.242 128.738C286.965 131.356 291.449 137.178 294 142.875C295 146 295 146 295 149C296.423 149.186 296.423 149.186 297.875 149.375C301 150 301 150 303 152C303.356 154.779 303.485 156.336 301.805 158.638C299.373 160.473 297.836 160.368 294.805 160.356C293.21 160.361 293.21 160.361 291.584 160.366C290.431 160.353 289.278 160.341 288.09 160.328C286.894 160.326 285.698 160.324 284.466 160.322C281.923 160.316 279.38 160.302 276.837 160.281C273.005 160.251 269.174 160.24 265.342 160.234C254.639 160.201 243.944 160.113 233.254 159.547C232.515 159.509 231.776 159.47 231.015 159.431C226.129 159.129 226.129 159.129 225 158C224.765 152.471 224.765 152.471 226 150C228.31 150 230.62 150 233 150C233.041 148.866 233.083 147.731 233.125 146.562C233.788 141.076 236.741 137.313 240 133C240.473 132.297 240.946 131.595 241.434 130.871C245.061 126.538 251.117 124.938 256.563 124.25C258.264 124.126 258.264 124.126 260 124C259.989 123.145 259.977 122.291 259.965 121.41C259.956 120.305 259.947 119.201 259.938 118.062C259.926 116.96 259.914 115.858 259.903 114.723C260.04 110.899 260.142 111.036 264 110.875Z" fill="#3BE7E5"/>
<path d="M295 255C310.18 255 325.36 255 341 255C331.424 278.94 331.424 278.94 323.105 282.902C316.782 285.375 310.713 285.307 304 285C304.144 285.808 304.289 286.616 304.438 287.449C304.623 288.518 304.809 289.586 305 290.688C305.186 291.743 305.371 292.799 305.562 293.887C305.952 296.656 306.033 299.213 306 302C305.395 302.025 304.791 302.05 304.167 302.076C301.403 302.193 298.639 302.315 295.875 302.438C294.924 302.477 293.972 302.516 292.992 302.557C288.254 302.771 283.664 303.066 279 304C279.471 302.866 279.941 301.731 280.426 300.562C281.055 299.042 281.684 297.521 282.312 296C282.621 295.256 282.93 294.512 283.248 293.746C284.175 291.501 285.09 289.252 286 287C286.39 286.055 286.39 286.055 286.788 285.092C289.185 279.053 290.66 272.804 292.188 266.5C293.116 262.705 294.044 258.91 295 255Z" fill="#28B0E4"/>
<path d="M265 364C265.33 364 265.66 364 266 364C265.919 364.808 265.838 365.616 265.754 366.449C265.134 372.542 265.134 372.542 267.523 377.84C269.398 379.15 269.398 379.15 271.371 380.133C273 381 273 381 274 383C274.085 385.105 274.107 387.213 274.098 389.32C274.094 390.577 274.091 391.834 274.088 393.129C274.075 395.107 274.075 395.107 274.062 397.125C274.057 398.465 274.053 399.805 274.049 401.145C274.037 404.43 274.021 407.715 274 411C272.761 411.025 271.523 411.05 270.247 411.076C265.561 411.172 260.875 411.271 256.19 411.372C254.179 411.415 252.168 411.457 250.157 411.497C237.418 411.755 224.716 412.19 212 413C212.14 409.625 212.288 406.25 212.438 402.875C212.477 401.924 212.516 400.972 212.557 399.992C212.771 395.254 213.066 390.664 214 386C214.66 386 215.32 386 216 386C217.445 387.469 217.445 387.469 219.125 389.5C222.862 393.905 226.869 397.966 231 402C234.685 400.772 235.5 399.414 237.875 396.375C241.644 391.649 245.52 387.05 249.5 382.5C254.257 377.054 258.881 371.533 263.391 365.879C263.922 365.259 264.453 364.639 265 364Z" fill="#269CEB"/>
<path d="M230.482 190.659C232.164 190.66 232.164 190.66 233.879 190.66C235.088 190.676 236.298 190.691 237.544 190.707C238.783 190.711 240.021 190.715 241.298 190.72C244.587 190.734 247.877 190.761 251.166 190.794C254.525 190.825 257.883 190.838 261.241 190.853C267.828 190.887 274.414 190.937 281.001 191C278.547 193.674 276.249 194.789 272.883 196.151C269.697 197.588 266.944 199.576 264.126 201.625C263.517 202.067 262.907 202.51 262.279 202.966C244.674 216.005 235.433 234.324 227.001 254C225.819 250.454 226.131 248.236 226.524 244.523C226.658 243.22 226.792 241.916 226.929 240.572C227.039 239.542 227.039 239.542 227.151 238.492C227.525 234.971 227.879 231.449 228.231 227.926C228.301 227.236 228.37 226.547 228.441 225.837C229.194 218.234 229.672 210.632 230.001 203C229.213 203.035 228.426 203.07 227.614 203.105C225.001 203 225.001 203 223.188 201.312C221.781 198.572 221.533 197.04 222.001 194C224.424 190.654 226.491 190.632 230.482 190.659Z" fill="#28ADE5"/>
<path d="M267.001 377C272.539 380.077 272.539 380.077 274.001 383C274.086 385.105 274.108 387.213 274.099 389.32C274.095 390.577 274.092 391.834 274.089 393.129C274.08 394.448 274.072 395.766 274.063 397.125C274.058 398.465 274.054 399.805 274.05 401.145C274.038 404.43 274.02 407.715 274.001 411C267.401 411 260.801 411 254.001 411C253.893 406.437 253.814 401.876 253.751 397.313C253.717 396.019 253.684 394.725 253.649 393.393C253.637 392.145 253.624 390.898 253.61 389.613C253.589 388.466 253.568 387.32 253.547 386.138C254.097 382.336 255.344 380.719 258.001 378C261.111 376.445 263.564 376.714 267.001 377Z" fill="#0077B6"/>
<path d="M262 329C262.939 331.757 263.366 333.168 263 336C261.347 338.461 259.44 340.44 257.371 342.562C254.979 345.021 252.836 347.577 250.688 350.25C246.765 355.087 242.763 359.85 238.718 364.585C236.83 366.802 234.996 369.006 233.305 371.379C232.874 371.914 232.444 372.449 232 373C230 373 230 373 228.484 371.496C227.286 370.073 226.088 368.65 224.891 367.227C223.69 365.812 222.453 364.427 221.172 363.086C220.62 362.501 220.068 361.915 219.5 361.312C218.995 360.793 218.489 360.274 217.969 359.738C217 358 217 358 216.77 355.496C218.256 352.48 218.905 352.385 221.98 351.297C223.712 350.767 225.448 350.253 227.188 349.75C239.927 345.686 249.683 339.672 259.426 330.434C261 329 261 329 262 329Z" fill="#28ADE4"/>
<path d="M230.482 190.66C232.163 190.66 232.163 190.66 233.879 190.66C235.088 190.676 236.297 190.691 237.544 190.707C238.782 190.711 240.021 190.716 241.297 190.72C244.587 190.734 247.876 190.761 251.166 190.794C254.524 190.825 257.883 190.838 261.241 190.854C267.828 190.887 274.414 190.937 281.001 191C278.001 193.5 276.501 194.553 273.501 196C271.273 197.075 270.501 197.868 267.235 200.074C261.365 204.04 255.288 203.769 248.462 203.563C246.372 203.5 244.286 203.481 242.196 203.469C222.001 203.563 223.178 202.5 222.001 199C221.646 196.231 221.522 194.666 223.178 192.361C225.689 190.486 227.365 190.638 230.482 190.66Z" fill="#3AE3E5"/>
<path d="M288 282C288.33 282.66 288.66 283.32 289 284C297.91 284 306.82 284 316 284C316 284.33 316 284.66 316 285C312.04 285 308.08 285 304 285C304.33 286.877 304.66 288.754 305 290.688C305.676 294.532 306.046 298.102 306 302C305.093 302.038 305.093 302.038 304.167 302.076C301.403 302.193 298.639 302.315 295.875 302.438C294.448 302.496 294.448 302.496 292.992 302.557C288.254 302.771 283.664 303.066 279 304C279.482 302.831 279.964 301.662 280.461 300.457C281.099 298.909 281.737 297.361 282.375 295.812C282.692 295.044 283.009 294.275 283.336 293.482C284.91 289.662 286.476 285.84 288 282Z" fill="#2493B9"/>
<path d="M177 305C174.845 307.155 173.516 307.687 170.684 308.691C169.414 309.149 169.414 309.149 168.119 309.615C167.234 309.928 166.349 310.24 165.438 310.563C163.685 311.186 161.934 311.813 160.184 312.441C159.406 312.717 158.628 312.992 157.826 313.276C156.012 313.855 156.012 313.855 155 315C152.989 315.077 150.979 315.148 148.967 315.19C138.509 315.44 129.791 317.487 120 321C118.673 321.357 117.342 321.704 116 322C131.355 305.183 155.873 304.227 177 305Z" fill="#28A0E0"/>
<path d="M217 168C217 168.66 217 169.32 217 170C208.369 172.431 199.737 174.859 191.105 177.284C187.095 178.41 183.086 179.541 179.078 180.676C177.51 181.117 175.943 181.559 174.375 182C173.692 182.195 173.009 182.39 172.305 182.591C168.559 183.641 164.849 184.432 161 185C161 183.02 161 181.04 161 179C173.844 175.954 186.729 173.2 199.688 170.688C200.722 170.486 200.722 170.486 201.777 170.279C203.751 169.895 205.725 169.516 207.699 169.137C208.842 168.917 209.985 168.698 211.163 168.471C214 168 214 168 217 168Z" fill="#37D3DD"/>
<path d="M371 136C371 137.98 371 139.96 371 142C358.547 145.137 346.041 147.865 333.438 150.312C332.75 150.447 332.063 150.582 331.355 150.721C329.382 151.106 327.408 151.485 325.434 151.863C323.717 152.193 323.717 152.193 321.967 152.529C319 153 319 153 315 153C315 152.34 315 151.68 315 151C315.672 150.825 316.345 150.649 317.038 150.469C331.814 146.597 346.437 142.447 360.939 137.645C364.528 136.522 367.171 136 371 136Z" fill="#33D5DE"/>
<path d="M315 168C321.063 168.598 326.924 169.491 332.875 170.777C333.684 170.949 334.494 171.12 335.328 171.297C337.886 171.84 340.443 172.388 343 172.938C344.713 173.302 346.427 173.666 348.141 174.029C355.768 175.651 363.389 177.299 371 179C371 180.98 371 182.96 371 185C363.352 183.768 356.035 181.992 348.625 179.75C346.534 179.128 344.443 178.507 342.352 177.887C341.303 177.574 340.254 177.261 339.173 176.939C334.125 175.445 329.063 174.003 324 172.562C323.092 172.304 322.184 172.045 321.249 171.778C319.166 171.185 317.083 170.592 315 170C315 169.34 315 168.68 315 168Z" fill="#33D5DE"/>
<path d="M162 137C168.468 137.556 174.297 138.75 180.5 140.625C182.327 141.162 184.153 141.699 185.98 142.234C186.944 142.519 187.907 142.803 188.9 143.096C194.524 144.736 200.169 146.302 205.812 147.875C207.965 148.477 210.117 149.078 212.27 149.68C213.846 150.12 215.423 150.56 217 151C217 151.66 217 152.32 217 153C209.542 152.32 202.245 151.012 194.9 149.581C192.901 149.193 190.9 148.814 188.898 148.436C179.809 146.691 170.913 144.497 162 142C162 140.35 162 138.7 162 137Z" fill="#34D3DB"/>
<path d="M266.125 165.5C269.568 167.297 270.629 168.373 272 172C271.882 175.418 271.589 177.926 269.937 180.937C266.73 182.696 263.496 182.761 260 182C257.604 179.789 256.431 177.92 255.062 175C254.966 171.91 256.141 170.417 258 168C261.03 165.461 262.179 164.869 266.125 165.5Z" fill="#37D9DF"/>
<path d="M295 177C295 179.31 295 181.62 295 184C288.4 184 281.8 184 275 184C277 179 277 179 278 177C283.448 175.184 289.464 175.571 295 177Z" fill="#2ECAD8"/>
<path d="M282.012 164.121C282.769 164.17 283.526 164.218 284.307 164.268C285.092 164.324 285.878 164.38 286.688 164.438C287.485 164.49 288.282 164.542 289.104 164.596C291.069 164.725 293.035 164.862 295 165C295 167.31 295 169.62 295 172C292.228 172.135 289.462 172.234 286.688 172.313C285.509 172.375 285.509 172.375 284.307 172.44C282.1 172.487 280.157 172.474 278 172C275.931 169.575 275 168.2 275 165C277.824 164.059 279.142 163.927 282.012 164.121Z" fill="#30CAD6"/>
<path d="M245.875 164.438C247.027 164.539 248.18 164.641 249.367 164.746C250.236 164.83 251.105 164.914 252 165C251.387 167.962 250.746 169.381 249 172C246.211 172.221 243.653 172.281 240.875 172.188C240.121 172.174 239.367 172.161 238.59 172.147C236.726 172.111 234.863 172.057 233 172C233 169.69 233 167.38 233 165C237.462 164.085 241.345 164.022 245.875 164.438Z" fill="#3BE4EB"/>
<path d="M233 178C235.772 177.892 238.54 177.813 241.312 177.75C242.098 177.716 242.884 177.683 243.693 177.648C249.482 177.55 249.482 177.55 252.105 179.828C253 182 253 182 252 185C245.73 184.67 239.46 184.34 233 184C233 182.02 233 180.04 233 178Z" fill="#39DFEB"/>
<path d="M362 422C369.803 422.39 375.929 424.758 383 428C379.704 429.053 377.205 428.937 373.797 428.441C372.817 428.303 371.837 428.164 370.828 428.021C369.304 427.794 369.304 427.794 367.75 427.562C366.719 427.415 365.688 427.267 364.625 427.115C362.082 426.75 359.541 426.378 357 426C357.639 425.711 358.279 425.423 358.938 425.125C361.152 424.172 361.152 424.172 362 422Z" fill="#33C8D2"/>
<path d="M168 422C167.602 424.387 167.602 424.387 166 427C162.869 428.116 159.667 428.438 156.375 428.812C155.478 428.933 154.581 429.054 153.656 429.178C151.439 429.473 149.222 429.746 147 430C150.001 426.695 153.33 425.627 157.5 424.312C158.515 423.975 158.515 423.975 159.551 423.631C162.48 422.68 164.902 422 168 422Z" fill="#3CD3DB"/>
<path d="M356 142C356.33 142.99 356.66 143.98 357 145C352.545 145.495 352.545 145.495 348 146C348.33 144.68 348.66 143.36 349 142C351.667 140.667 353.167 141.329 356 142Z" fill="#36DCE3"/>
<path d="M369 425C374.654 424.654 378.03 425.566 383 428C379.596 429.137 377.225 428.84 373.75 428.062C372.858 427.868 371.966 427.673 371.047 427.473C370.371 427.317 369.696 427.161 369 427C369 426.34 369 425.68 369 425Z" fill="#3BCDD7"/>
<path d="M157 425C157 425.66 157 426.32 157 427C157.66 427.33 158.32 427.66 159 428C155.04 428.66 151.08 429.32 147 430C150.048 426.952 152.58 425 157 425Z" fill="#37BFCE"/>
</svg>
